<svg xmlns="http://www.w3.org/2000/svg" width="640" height="630" viewBox="0 0 640 630"><defs><marker id="arr" markerWidth="9" markerHeight="9" refX="8" refY="4" orient="auto"><path d="M0,0 L8,4 L0,8" fill="#486885"/></marker></defs><rect width="640" height="630" fill="#fff"/><text x="32" y="48" font-family="Noto Sans CJK TC, Noto Sans CJK SC, sans-serif" font-size="30" fill="#17293c" text-anchor="start">倒轉時間框，集合相同、先後不同</text><text x="35" y="113" font-family="Noto Sans CJK TC, Noto Sans CJK SC, sans-serif" font-size="30" fill="#17293c" text-anchor="start">原框順序</text><rect x="40" y="140" width="245" height="70" rx="10" fill="#bfdae8" stroke="#54718b" stroke-width="2"/><text x="162.5" y="186.0" font-family="Noto Sans CJK TC, Noto Sans CJK SC, sans-serif" font-size="30" fill="#17293c" text-anchor="middle">較低頻框</text><rect x="355" y="140" width="245" height="70" rx="10" fill="#ffdbaa" stroke="#54718b" stroke-width="2"/><text x="477.5" y="186.0" font-family="Noto Sans CJK TC, Noto Sans CJK SC, sans-serif" font-size="30" fill="#17293c" text-anchor="middle">較高頻框</text><path d="M302,175 L337,175" fill="none" stroke="#486885" stroke-width="4" marker-end="url(#arr)"/><text x="35" y="267" font-family="Noto Sans CJK TC, Noto Sans CJK SC, sans-serif" font-size="30" fill="#17293c" text-anchor="start">倒轉框順序</text><rect x="40" y="294" width="245" height="70" rx="10" fill="#ffdbaa" stroke="#54718b" stroke-width="2"/><text x="162.5" y="340.0" font-family="Noto Sans CJK TC, Noto Sans CJK SC, sans-serif" font-size="30" fill="#17293c" text-anchor="middle">較高頻框</text><rect x="355" y="294" width="245" height="70" rx="10" fill="#bfdae8" stroke="#54718b" stroke-width="2"/><text x="477.5" y="340.0" font-family="Noto Sans CJK TC, Noto Sans CJK SC, sans-serif" font-size="30" fill="#17293c" text-anchor="middle">較低頻框</text><path d="M302,329 L337,329" fill="none" stroke="#486885" stroke-width="4" marker-end="url(#arr)"/><text x="35" y="422" font-family="Noto Sans CJK TC, Noto Sans CJK SC, sans-serif" font-size="30" fill="#17293c" text-anchor="start">順序答案改變</text><rect x="40" y="455" width="560" height="80" rx="10" fill="#edf3f8" stroke="#54718b" stroke-width="2"/><text x="320.0" y="506.0" font-family="Noto Sans CJK TC, Noto Sans CJK SC, sans-serif" font-size="30" fill="#17293c" text-anchor="middle">整段平均摘要：近似相同</text><text x="35" y="588" font-family="Noto Sans CJK TC, Noto Sans CJK SC, sans-serif" font-size="28" fill="#17293c" text-anchor="start">框組示意；不是重算倒放波形</text></svg>
